<svg xmlns="http://www.w3.org/2000/svg" xmlns:xlink="http://www.w3.org/1999/xlink" width="1206.554" height="951.584" viewBox="0 0 1206.554 951.584">
  <defs>
    <clipPath id="clip-path">
      <path id="Path_3870" data-name="Path 3870" d="M0-197.886H1206.554V-991.7H0Z" transform="translate(0 991.701)" fill="none"/>
    </clipPath>
  </defs>
  <g id="Group_7247" data-name="Group 7247" transform="translate(-194 -3549.071)">
    <g id="Group_7246" data-name="Group 7246">
      <g id="Group_7126" data-name="Group 7126" transform="translate(473 4184)">
        <path id="Path_3871" data-name="Path 3871" d="M-69.353,0H-254.824l-92.735,158.327,92.735,158.328H-69.353L23.383,158.327Z" transform="translate(347.559)" fill="#fff"/>
      </g>
      <g id="Group_7121" data-name="Group 7121" transform="translate(473 3867)">
        <path id="Path_3866" data-name="Path 3866" d="M-69.353,0H-254.824l-92.735,158.327,92.735,158.328H-69.353L23.383,158.327Z" transform="translate(347.559)" fill="#fff"/>
      </g>
      <g id="Group_7123" data-name="Group 7123" transform="translate(750 4025)">
        <path id="Path_3868" data-name="Path 3868" d="M-23.118,0l-92.735,158.328,92.735,158.327H162.353l92.735-158.327L162.353,0Z" transform="translate(115.853)" fill="#fff"/>
      </g>
      <g id="Group_7129" data-name="Group 7129" transform="translate(751 3709)">
        <path id="Path_3874" data-name="Path 3874" d="M-69.353,0H-254.824l-92.735,158.327,92.735,158.328H-69.353L23.383,158.327Z" transform="translate(347.559)" fill="#fff"/>
      </g>
      <g id="Group_7131" data-name="Group 7131" transform="translate(195 4025)">
        <path id="Path_3876" data-name="Path 3876" d="M-69.353,0H-254.824l-92.735,158.327,92.735,158.328H-69.353L23.383,158.327Z" transform="translate(347.559)" fill="#fff"/>
      </g>
      <g id="Group_7134" data-name="Group 7134" transform="translate(1029 3868)">
        <path id="Path_3879" data-name="Path 3879" d="M-69.353,0H-254.824l-92.735,158.327,92.735,158.328H-69.353L23.383,158.327Z" transform="translate(347.559)" fill="#fff"/>
      </g>
      <g id="Group_7137" data-name="Group 7137" transform="translate(1029 3550)">
        <path id="Path_3882" data-name="Path 3882" d="M-69.353,0H-254.824l-92.735,158.327,92.735,158.328H-69.353L23.383,158.327Z" transform="translate(347.559)" fill="#fff"/>
      </g>
      <g id="Group_7180" data-name="Group 7180" transform="translate(-6.5 803)">
        <text id="Plataformas_Digitais" data-name="Plataformas 
Digitais" transform="translate(390 3335)" fill="#ff611e" font-size="20" font-family="Usual-ExtraBold, Usual" font-weight="800"><tspan x="-64.8" y="0">Plataformas </tspan><tspan x="-39.05" y="30">Digitais</tspan></text>
        <text id="Páginas_Web_responsivas_Desenvolvimento_de_API" data-name="Páginas Web responsivas
Desenvolvimento de API" transform="translate(386.5 3413)" font-size="14" font-family="Usual-Regular, Usual"><tspan x="-85.687" y="0">Páginas Web responsivas</tspan><tspan x="-82.194" y="30">Desenvolvimento de API</tspan></text>
      </g>
      <g id="Group_7181" data-name="Group 7181" transform="translate(549.5 472)">
        <text id="Inteligência_de_dados" data-name="Inteligência 
de dados" transform="translate(390 3335)" fill="#ff611e" font-size="20" font-family="Usual-ExtraBold, Usual" font-weight="800"><tspan x="-61.42" y="0">Inteligência </tspan><tspan x="-46.05" y="30">de dados</tspan></text>
        <text id="Formato_de_dados_Modelagem_de_dados_e_visualização_Transformações_de_dados" data-name="Formato de dados
Modelagem de dados e visualização
Transformações de dados" transform="translate(386.5 3413)" font-size="14" font-family="Usual-Regular, Usual"><tspan x="-60.984" y="0">Formato de dados</tspan><tspan x="-120.33" y="30">Modelagem de dados e visualização</tspan><tspan x="-86.611" y="60">Transformações de dados</tspan></text>
      </g>
      <g id="Group_7182" data-name="Group 7182" transform="translate(549.5 788)">
        <text id="Realidade_Aumentada_Virtual" data-name="Realidade 
Aumentada/Virtual" transform="translate(390 3335)" fill="#ff611e" font-size="20" font-family="Usual-ExtraBold, Usual" font-weight="800"><tspan x="-52.64" y="0">Realidade </tspan><tspan x="-97.53" y="30">Aumentada/Virtual</tspan></text>
        <text id="Modelagem_3D_Frameworks_e_kits_de_ferramentas_Desenvolvimento_Mobile" data-name="Modelagem 3D
Frameworks e kits de ferramentas
Desenvolvimento Mobile" transform="translate(386.5 3413)" font-size="14" font-family="Usual-Regular, Usual"><tspan x="-51.534" y="0">Modelagem 3D</tspan><tspan x="-112.448" y="30">Frameworks e kits de ferramentas</tspan><tspan x="-83.013" y="60">Desenvolvimento Mobile</tspan></text>
      </g>
      <g id="Group_7183" data-name="Group 7183" transform="translate(827.5 646)">
        <text id="Blockchain" transform="translate(390 3335)" fill="#ff611e" font-size="20" font-family="Usual-ExtraBold, Usual" font-weight="800"><tspan x="-55.05" y="0">Blockchain</tspan></text>
        <text id="Design_de_aplicações_distribuídas_Contratos_executáveis_Aplicativos_de_página_única" data-name="Design de aplicações distribuídas
Contratos executáveis 
Aplicativos de página única" transform="translate(386.5 3383)" font-size="14" font-family="Usual-Regular, Usual"><tspan x="-111.888" y="0">Design de aplicações distribuídas</tspan><tspan x="-75.551" y="30">Contratos executáveis </tspan><tspan x="-91.308" y="60">Aplicativos de página única</tspan></text>
      </g>
      <g id="Group_7184" data-name="Group 7184" transform="translate(827.5 313)">
        <text id="Sensores_e_IoT" data-name="Sensores 
e IoT" transform="translate(390 3335)" fill="#ff611e" font-size="20" font-family="Usual-ExtraBold, Usual" font-weight="800"><tspan x="-49.37" y="0">Sensores </tspan><tspan x="-24.37" y="30">e IoT</tspan></text>
        <text id="Modelagem_de_Dados_e_Visualização_Funções_de_nuvem_Aplicativos_de_página_única" data-name="Modelagem de Dados e Visualização
Funções de nuvem
Aplicativos de página única" transform="translate(386.5 3413)" font-size="14" font-family="Usual-Regular, Usual"><tspan x="-122.248" y="0">Modelagem de Dados e Visualização</tspan><tspan x="-63.252" y="30">Funções de nuvem</tspan><tspan x="-91.308" y="60">Aplicativos de página única</tspan></text>
      </g>
      <g id="Group_7186" data-name="Group 7186" transform="translate(0 776)">
        <text id="Desenvolvimento_Mobile" data-name="Desenvolvimento 
Mobile" transform="translate(661.5 3204)" fill="#ff611e" font-size="20" font-family="Usual-ExtraBold, Usual" font-weight="800"><tspan x="-90.31" y="0">Desenvolvimento </tspan><tspan x="-34.38" y="30">Mobile</tspan></text>
        <text id="Desenvolvimento_de_Aplicativos_Móveis_Desenvolvimento_Mobile" data-name="Desenvolvimento de Aplicativos Móveis
Desenvolvimento Mobile" transform="translate(658 3282)" font-size="14" font-family="Usual-Regular, Usual"><tspan x="-132.86" y="0">Desenvolvimento de Aplicativos Móveis</tspan><tspan x="-83.013" y="30">Desenvolvimento Mobile</tspan></text>
      </g>
      <g id="Group_7185" data-name="Group 7185" transform="translate(0 760)">
        <text id="Inovação_e_Design" data-name="Inovação e 
Design" transform="translate(661.5 3522)" fill="#ff611e" font-size="20" font-family="Usual-ExtraBold, Usual" font-weight="800"><tspan x="-56.67" y="0">Inovação e </tspan><tspan x="-35.16" y="30">Design</tspan></text>
        <text id="Modelagem_de_negócios_Design_de_serviços_UX_UI" data-name="Modelagem de negócios 
Design de serviços
UX/UI" transform="translate(658 3600)" font-size="14" font-family="Usual-Regular, Usual"><tspan x="-84.077" y="0">Modelagem de negócios </tspan><tspan x="-63.063" y="30">Design de serviços</tspan><tspan x="-20.566" y="60">UX/UI</tspan></text>
      </g>
    </g>
    <g id="Group_7122" data-name="Group 7122" transform="translate(472.783 3866.574)">
      <path id="Path_3867" data-name="Path 3867" d="M-69.353,0H-254.824l-92.735,158.327,92.735,158.328H-69.353L23.383,158.327Z" transform="translate(347.559)" fill="none" stroke="#0f2b92" stroke-width="1.887"/>
    </g>
    <g id="Group_7125" data-name="Group 7125" transform="translate(194 3549.071)" clip-path="url(#clip-path)">
      <g id="Group_7124" data-name="Group 7124" transform="translate(556.459 476.404)">
        <path id="Path_3869" data-name="Path 3869" d="M-69.353,0H-254.824l-92.735,158.327,92.735,158.328H-69.353L23.383,158.327Z" transform="translate(347.559)" fill="none" stroke="#0f2b92" stroke-width="1.887"/>
      </g>
    </g>
    <g id="Group_7128" data-name="Group 7128" transform="translate(194 3549.071)" clip-path="url(#clip-path)">
      <g id="Group_7127" data-name="Group 7127" transform="translate(278.566 634.717)">
        <path id="Path_3872" data-name="Path 3872" d="M-69.353,0H-254.824l-92.735,158.327,92.735,158.328H-69.353L23.383,158.327Z" transform="translate(347.559)" fill="none" stroke="#0f2b92" stroke-width="1.887"/>
      </g>
    </g>
    <g id="Group_7130" data-name="Group 7130" transform="translate(751.299 3708.706)">
      <path id="Path_3875" data-name="Path 3875" d="M-69.353,0H-254.824l-92.735,158.327,92.735,158.328H-69.353L23.383,158.327Z" transform="translate(347.559)" fill="none" stroke="#0f2b92" stroke-width="1.887"/>
    </g>
    <g id="Group_7133" data-name="Group 7133" transform="translate(194 3549.071)" clip-path="url(#clip-path)">
      <g id="Group_7132" data-name="Group 7132" transform="translate(0.875 475.648)">
        <path id="Path_3877" data-name="Path 3877" d="M-69.353,0H-254.824l-92.735,158.327,92.735,158.328H-69.353L23.383,158.327Z" transform="translate(347.559)" fill="none" stroke="#0f2b92" stroke-width="1.887"/>
      </g>
    </g>
    <g id="Group_7136" data-name="Group 7136" transform="translate(194 3549.071)" clip-path="url(#clip-path)">
      <g id="Group_7135" data-name="Group 7135" transform="translate(834.737 318.498)">
        <path id="Path_3880" data-name="Path 3880" d="M-69.353,0H-254.824l-92.735,158.327,92.735,158.328H-69.353L23.383,158.327Z" transform="translate(347.559)" fill="none" stroke="#0f2b92" stroke-width="1.887"/>
      </g>
    </g>
    <g id="Group_7139" data-name="Group 7139" transform="translate(194 3549.071)" clip-path="url(#clip-path)">
      <g id="Group_7138" data-name="Group 7138" transform="translate(834.737 1.332)">
        <path id="Path_3883" data-name="Path 3883" d="M-69.353,0H-254.824l-92.735,158.327,92.735,158.328H-69.353L23.383,158.327Z" transform="translate(347.559)" fill="none" stroke="#0f2b92" stroke-width="1.887"/>
      </g>
    </g>
  </g>
</svg>
