<svg xmlns="http://www.w3.org/2000/svg" width="450.536" height="879.081" viewBox="0 0 450.536 879.081">
  <g id="Group_7248" data-name="Group 7248" transform="translate(45.369 -3681.25)">
    <path id="Path_3866" data-name="Path 3866" d="M-154.96,0h-128.4l-64.2,109.608,64.2,109.608h128.4l64.2-109.608Z" transform="translate(495.059 3682)" fill="#fff" stroke="#0f2b92" stroke-width="1.5"/>
    <text id="Desenvolvimento_Mobile" data-name="Desenvolvimento 
Mobile" transform="translate(272 3759.383)" fill="#ff611e" font-size="13" font-family="Usual-ExtraBold, Usual" font-weight="800"><tspan x="-58.701" y="0">Desenvolvimento </tspan><tspan x="-22.347" y="20">Mobile</tspan></text>
    <path id="Path_3876" data-name="Path 3876" d="M-154.96,0h-128.4l-64.2,109.608,64.2,109.608h128.4l64.2-109.608Z" transform="translate(303.059 3791.381)" fill="#fff" stroke="#0f2b92" stroke-width="1.5"/>
    <text id="Plataformas_Digitais" data-name="Plataformas 
Digitais" transform="translate(87 3853.764)" fill="#ff611e" font-size="13" font-family="Usual-ExtraBold, Usual" font-weight="800"><tspan x="-42.12" y="0">Plataformas </tspan><tspan x="-25.383" y="20">Digitais</tspan></text>
    <text id="Páginas_Web_responsivas_Desenvolvimento_de_API" data-name="Páginas Web responsivas
Desenvolvimento de API" transform="translate(36 3896.916)" font-size="11" font-family="Usual-Regular, Usual"><tspan x="16.394" y="11">Páginas Web </tspan><tspan x="19.628" y="27">responsivas</tspan><tspan x="5.174" y="51">Desenvolvimento </tspan><tspan x="33.592" y="67">de API</tspan></text>
    <path id="Path_3874" data-name="Path 3874" d="M-154.96,0h-128.4l-64.2,109.608,64.2,109.608h128.4l64.2-109.608Z" transform="translate(303.059 4010.836)" fill="#fff" stroke="#0f2b92" stroke-width="1.5"/>
    <text id="Inteligência_de_dados" data-name="Inteligência 
de dados" transform="translate(87 4058.834)" fill="#ff611e" font-size="13" font-family="Usual-ExtraBold, Usual" font-weight="800"><tspan x="-39.923" y="0">Inteligência </tspan><tspan x="-29.933" y="20">de dados</tspan></text>
    <text id="Formato_de_dados_Modelagem_de_dados_e_visualização_Transformações_de_dados" data-name="Formato de dados
Modelagem de dados e visualização
Transformações de dados" transform="translate(28 4102.986)" font-size="11" font-family="Usual-Regular, Usual"><tspan x="11.084" y="11">Formato de dados</tspan><tspan x="1.866" y="35">Modelagem de dados </tspan><tspan x="22.937" y="51">e visualização</tspan><tspan x="8.642" y="75">Transformações de </tspan><tspan x="42.654" y="91">dados</tspan></text>
    <path id="Path_3868" data-name="Path 3868" d="M-51.653,0l-64.2,109.608,64.2,109.608h128.4l64.2-109.608L76.746,0Z" transform="translate(71.353 4230.291)" fill="#fff" stroke="#0f2b92" stroke-width="1.5"/>
    <text id="Realidade_Aumentada_Virtual" data-name="Realidade 
Aumentada/Virtual" transform="translate(87 4279.29)" fill="#ff611e" font-size="13" font-family="Usual-ExtraBold, Usual" font-weight="800"><tspan x="-34.216" y="0">Realidade </tspan><tspan x="-63.395" y="20">Aumentada/Virtual</tspan></text>
    <text id="Modelagem_3D_Frameworks_e_kits_de_ferramentas_Desenvolvimento_Mobile" data-name="Modelagem 3D
Frameworks e kits de ferramentas
Desenvolvimento Mobile" transform="translate(27 4323.441)" font-size="11" font-family="Usual-Regular, Usual"><tspan x="19.509" y="11">Modelagem 3D</tspan><tspan x="4.775" y="35">Frameworks e kits de </tspan><tspan x="28.221" y="51">ferramentas</tspan><tspan x="14.174" y="75">Desenvolvimento </tspan><tspan x="41.949" y="91">Mobile</tspan></text>
    <path id="Path_3879" data-name="Path 3879" d="M-154.96,0h-128.4l-64.2,109.608,64.2,109.608h128.4l64.2-109.608Z" transform="translate(495.059 4340.365)" fill="#fff" stroke="#0f2b92" stroke-width="1.5"/>
    <text id="Blockchain" transform="translate(272 4401.747)" fill="#ff611e" font-size="13" font-family="Usual-ExtraBold, Usual" font-weight="800"><tspan x="-35.783" y="0">Blockchain</tspan></text>
    <text id="Design_de_aplicações_distribuídas_Contratos_executáveis_Aplicativos_de_página_única" data-name="Design de aplicações distribuídas
Contratos executáveis 
Aplicativos de página única" transform="translate(207 4425.131)" font-size="11" font-family="Usual-Regular, Usual"><tspan x="9.428" y="11">Design de aplicações </tspan><tspan x="34.007" y="27">distribuídas</tspan><tspan x="6.986" y="51">Contratos executáveis </tspan><tspan x="8.785" y="75">Aplicativos de página </tspan><tspan x="50.821" y="91">única</tspan></text>
    <path id="Path_3882" data-name="Path 3882" d="M-154.96,0h-128.4l-64.2,109.608,64.2,109.608h128.4l64.2-109.608Z" transform="translate(495.059 4120.91)" fill="#fff" stroke="#0f2b92" stroke-width="1.5"/>
    <text id="Sensores_e_IoT" data-name="Sensores 
e IoT" transform="translate(272 4167.908)" fill="#ff611e" font-size="13" font-family="Usual-ExtraBold, Usual" font-weight="800"><tspan x="-32.09" y="0">Sensores </tspan><tspan x="-15.84" y="20">e IoT</tspan></text>
    <text id="Modelagem_de_Dados_e_Visualização_Funções_de_nuvem_Aplicativos_de_página_única" data-name="Modelagem de Dados e Visualização
Funções de nuvem
Aplicativos de página única" transform="translate(214 4212.061)" font-size="11" font-family="Usual-Regular, Usual"><tspan x="0.124" y="11">Modelagem de Dados </tspan><tspan x="21.172" y="27">e Visualização</tspan><tspan x="8.302" y="51">Funções de nuvem</tspan><tspan x="1.785" y="75">Aplicativos de página </tspan><tspan x="43.821" y="91">única</tspan></text>
    <text id="Desenvolvimento_de_Aplicativos_Móveis_Desenvolvimento_Mobile" data-name="Desenvolvimento de Aplicativos Móveis
Desenvolvimento Mobile" transform="translate(212 3803.535)" font-size="11" font-family="Usual-Regular, Usual"><tspan x="6.15" y="11">Desenvolvimento de </tspan><tspan x="10.808" y="27">Aplicativos Móveis</tspan><tspan x="14.174" y="51">Desenvolvimento </tspan></text>
    <path id="Path_3871" data-name="Path 3871" d="M-154.96,0h-128.4l-64.2,109.608,64.2,109.608h128.4l64.2-109.608Z" transform="translate(495.059 3901.455)" fill="#fff" stroke="#0f2b92" stroke-width="1.5"/>
    <text id="Inovação_e_Design" data-name="Inovação e 
Design" transform="translate(272 3958.453)" fill="#ff611e" font-size="13" font-family="Usual-ExtraBold, Usual" font-weight="800"><tspan x="-36.835" y="0">Inovação e </tspan><tspan x="-22.854" y="20">Design</tspan></text>
    <text id="Modelagem_de_negócios_Design_de_serviços_UX_UI" data-name="Modelagem de negócios 
Design de serviços
UX/UI" transform="translate(212 4001.605)" font-size="11" font-family="Usual-Regular, Usual"><tspan x="20.56" y="11">Modelagem de </tspan><tspan x="36.075" y="27">negócios </tspan><tspan x="10.451" y="51">Design de serviços</tspan><tspan x="43.841" y="75">UX/UI</tspan></text>
  </g>
</svg>
